<svg width="61" height="75" viewBox="0 0 61 75" fill="none" xmlns="http://www.w3.org/2000/svg">
<path d="M27.3655 73.4868C4.2843 42.6315 0 39.4648 0 28.125C0 12.5919 13.6553 0 30.5 0C47.3447 0 61 12.5919 61 28.125C61 39.4648 56.7157 42.6315 33.6345 73.4868C32.1198 75.5045 28.88 75.5043 27.3655 73.4868ZM30.5 39.8438C37.5187 39.8438 43.2083 34.5971 43.2083 28.125C43.2083 21.6529 37.5187 16.4062 30.5 16.4062C23.4813 16.4062 17.7917 21.6529 17.7917 28.125C17.7917 34.5971 23.4813 39.8438 30.5 39.8438Z" fill="#0C6291"/>
</svg>
