<?xml version="1.0" encoding="UTF-8"?>
<svg xmlns="http://www.w3.org/2000/svg" xmlns:xlink="http://www.w3.org/1999/xlink" width="419.25pt" height="297.75pt" viewBox="0 0 419.25 297.75" version="1.2">
<defs>
<clipPath id="clip1">
  <path d="M 0 0.140625 L 293 0.140625 L 293 297.359375 L 0 297.359375 Z M 0 0.140625 "/>
</clipPath>
</defs>
<g id="surface1">
<g clip-path="url(#clip1)" clip-rule="nonzero">
<path style=" stroke:none;fill-rule:nonzero;fill:rgb(78.039551%,94.119263%,74.119568%);fill-opacity:1;" d="M 278.203125 402.464844 C 272.644531 393.761719 268.171875 386.871094 268.171875 371.882812 C 268.171875 356.890625 272.523438 350.003906 278.203125 341.300781 C 284.605469 331.386719 292.460938 319.058594 292.460938 296.332031 C 292.460938 273.605469 284.605469 261.277344 278.320312 251.363281 C 272.761719 242.660156 268.292969 235.769531 268.292969 220.78125 C 268.292969 205.792969 272.644531 198.902344 278.320312 190.199219 C 284.605469 180.285156 292.460938 167.957031 292.460938 145.230469 C 292.460938 122.507812 284.605469 110.175781 278.320312 100.265625 C 272.761719 91.5625 268.292969 84.671875 268.292969 69.679688 C 268.292969 54.691406 272.644531 47.800781 278.320312 39.097656 C 284.605469 29.1875 292.460938 16.855469 292.460938 -5.867188 C 292.460938 -28.59375 284.605469 -40.921875 278.320312 -50.835938 C 272.761719 -59.539062 268.292969 -66.429688 268.292969 -81.417969 C 268.292969 -96.40625 272.644531 -103.296875 278.320312 -112 C 284.605469 -121.914062 292.460938 -134.242188 292.460938 -156.96875 L -168.589844 -156.96875 L -168.589844 447.429688 L 292.460938 447.429688 C 292.460938 424.707031 284.605469 412.375 278.203125 402.464844 Z M 278.203125 402.464844 "/>
</g>
</g>
</svg>
